# xmcd
#
# Track frame offsets: 
#        182
#        16385
#        40090
#        59290
#        75240
#        96915
#        113365
#        132352
#        145652
#        158527
#        177190
#
# Disc length: 2606 seconds
#
# Revision: 4
# Processed by: cddbd v1.5.2PL0 Copyright (c) Steve Scherf et al.
# Submitted via: ExactAudioCopyFreeDBPlugin 1.0
#
DISCID=790a2c0b
DTITLE=Z.Z. Hill - Greatest Hits
DYEAR=1990
DGENRE=Soul
TTITLE0=Cheatin' in the Next Room
TTITLE1=Down Home Blues
TTITLE2=Please Don't Let Our Good Thing End
TTITLE3=Right Arm for Your Love
TTITLE4=Open House at My House
TTITLE5=Someone Else is Steppin' In
TTITLE6=Get a Little, Give a Little
TTITLE7=Shade Tree Mechanic
TTITLE8=Three Into Two Won't Go
TTITLE9=Stop You from Givin' Me the Blues
TTITLE10=Friday is My Day
EXTD=MALD 7437
EXTT0=
EXTT1=
EXTT2=
EXTT3=
EXTT4=
EXTT5=
EXTT6=
EXTT7=
EXTT8=
EXTT9=
EXTT10=
PLAYORDER=
